<?xml version="1.0" encoding="UTF-8"?>
<svg width="14px" height="13px" viewBox="0 0 14 13" version="1.1" xmlns="http://www.w3.org/2000/svg" xmlns:xlink="http://www.w3.org/1999/xlink">
    <title>1.通用/1.Buttons按钮/带图标的按钮/亮色/次按钮-默认备份 4</title>
    <g id="三阶段设计" stroke="none" stroke-width="1" fill="none" fill-rule="evenodd">
        <g id="投研管理-研报管理-撰写研报" transform="translate(-1106.000000, -473.000000)">
            <g id="编组" transform="translate(1105.000000, 472.000000)">
                <g id="save"></g>
                <rect id="矩形" fill="#000000" fill-rule="nonzero" opacity="0" x="0" y="0" width="16" height="16"></rect>
                <path d="M14.1890625,5.5171875 L10.221875,4.940625 L8.4484375,1.3453125 C8.4,1.246875 8.3203125,1.1671875 8.221875,1.11875 C7.975,0.996875 7.675,1.0984375 7.5515625,1.3453125 L5.778125,4.940625 L1.8109375,5.5171875 C1.7015625,5.5328125 1.6015625,5.584375 1.525,5.6625 C1.3328125,5.8609375 1.3359375,6.1765625 1.534375,6.3703125 L4.4046875,9.16875 L3.7265625,13.1203125 C3.7078125,13.228125 3.725,13.340625 3.7765625,13.4375 C3.9046875,13.68125 4.2078125,13.7765625 4.4515625,13.646875 L8,11.78125 L11.5484375,13.646875 C11.6453125,13.6984375 11.7578125,13.715625 11.865625,13.696875 C12.1375,13.65 12.3203125,13.3921875 12.2734375,13.1203125 L11.5953125,9.16875 L14.465625,6.3703125 C14.54375,6.29375 14.5953125,6.19375 14.6109375,6.084375 C14.653125,5.8109375 14.4625,5.5578125 14.1890625,5.5171875 Z" id="路径" fill="#FADB14"></path>
            </g>
        </g>
    </g>
</svg>