<?xml version="1.0" encoding="UTF-8"?>
<svg width="11px" height="13px" viewBox="0 0 11 13" version="1.1" xmlns="http://www.w3.org/2000/svg" xmlns:xlink="http://www.w3.org/1999/xlink">
    <title>1.通用/1.Buttons按钮/带图标的按钮/亮色/次按钮-默认备份 5</title>
    <g id="三阶段设计" stroke="none" stroke-width="1" fill="none" fill-rule="evenodd">
        <g id="投研管理-研报管理-撰写研报" transform="translate(-1080.000000, -500.000000)">
            <g id="attachment" transform="translate(1077.000000, 498.000000)">
                <rect id="矩形" fill="#000000" fill-rule="nonzero" opacity="0" x="0" y="0" width="16" height="16"></rect>
                <path d="M12.4578125,3.10390625 C10.9859375,1.63203125 8.5890625,1.63203125 7.11875,3.10390625 L3.040625,7.17890625 C3.0140625,7.20546875 3,7.24140625 3,7.27890625 C3,7.31640625 3.0140625,7.35234375 3.040625,7.37890625 L3.6171875,7.95546875 C3.671875,8.01015625 3.7609375,8.01015625 3.815625,7.95546875 L7.89375,3.88046875 C8.4,3.37421875 9.0734375,3.09609375 9.7890625,3.09609375 C10.5046875,3.09609375 11.178125,3.37421875 11.6828125,3.88046875 C12.1890625,4.38671875 12.4671875,5.06015625 12.4671875,5.77421875 C12.4671875,6.48984375 12.1890625,7.16171875 11.6828125,7.66796875 L7.5265625,11.8226562 L6.853125,12.4960938 C6.2234375,13.1257812 5.2,13.1257812 4.5703125,12.4960938 C4.265625,12.1914062 4.0984375,11.7867187 4.0984375,11.3554688 C4.0984375,10.9242187 4.265625,10.5195312 4.5703125,10.2148438 L8.69375,6.09296875 C8.7984375,5.98984375 8.9359375,5.93203125 9.0828125,5.93203125 L9.084375,5.93203125 C9.23125,5.93203125 9.3671875,5.98984375 9.4703125,6.09296875 C9.575,6.19765625 9.63125,6.33515625 9.63125,6.48203125 C9.63125,6.62734375 9.5734375,6.76484375 9.4703125,6.86796875 L6.1,10.2351562 C6.0734375,10.2617188 6.059375,10.2976562 6.059375,10.3351563 C6.059375,10.3726562 6.0734375,10.4085938 6.1,10.4351562 L6.6765625,11.0117188 C6.73125,11.0664062 6.8203125,11.0664062 6.875,11.0117188 L10.24375,7.64296875 C10.5546875,7.33203125 10.725,6.91953125 10.725,6.48046875 C10.725,6.04140625 10.553125,5.62734375 10.24375,5.31796875 C9.6015625,4.67578125 8.5578125,4.67734375 7.915625,5.31796875 L7.515625,5.71953125 L3.79375,9.43984375 C3.28125,9.95234375 3,10.6320313 3,11.3570312 C3,12.0804687 3.2828125,12.7601562 3.79375,13.2710937 C4.3234375,13.7992187 5.0171875,14.0632812 5.7109375,14.0632812 C6.4046875,14.0632812 7.0984375,13.7992188 7.6265625,13.2710937 L12.4578125,8.44296875 C13.16875,7.73046875 13.5625046,6.78203125 13.5625046,5.77421875 C13.5640625,4.76484375 13.1703125,3.81640625 12.4578125,3.10390625 Z" id="路径" fill="#BD1818"></path>
            </g>
        </g>
    </g>
</svg>