<?xml version="1.0" encoding="UTF-8"?>
<svg width="11px" height="10px" viewBox="0 0 11 10" version="1.1" xmlns="http://www.w3.org/2000/svg" xmlns:xlink="http://www.w3.org/1999/xlink">
    <title>通用/Icon图标/Line/Close</title>
    <g id="页面-1" stroke="none" stroke-width="1" fill="none" fill-rule="evenodd">
        <g id="合并类板块-板块合并" transform="translate(-577.000000, -269.000000)" fill="#C2C7CE">
            <g id="编组-10" transform="translate(500.000000, 232.000000)">
                <g id="卡片备份-145" transform="translate(17.280957, 31.000000)">
                    <g id="通用/Icon图标/Line/Close" transform="translate(60.000000, 6.000000)">
                        <rect id="矩形" fill-rule="nonzero" opacity="0" x="0" y="0" width="10" height="10"></rect>
                        <path d="M5,0.625 C7.41601562,0.625 9.375,2.58398438 9.375,5 C9.375,7.41601562 7.41601562,9.375 5,9.375 C2.58398438,9.375 0.625,7.41601562 0.625,5 C0.625,2.58398438 2.58398438,0.625 5,0.625 Z M5,1.3671875 C2.99414062,1.3671875 1.3671875,2.99414062 1.3671875,5 C1.3671875,7.00585937 2.99414062,8.6328125 5,8.6328125 C7.00585937,8.6328125 8.6328125,7.00585937 8.6328125,5 C8.6328125,2.99414062 7.00585937,1.3671875 5,1.3671875 Z M6.61523438,3.37695312 C6.65820312,3.37695312 6.69335938,3.41210938 6.69335938,3.45507812 C6.69335938,3.47363281 6.6875,3.4921875 6.67578125,3.50585938 L6.67578125,3.50585938 L5.40527344,5.01953125 L6.67382812,6.53222656 C6.68554687,6.546875 6.69238281,6.56445312 6.69238281,6.58300781 C6.69238281,6.62695312 6.65722656,6.66113281 6.61425781,6.66113281 L6.61425781,6.66113281 L5.96972656,6.65820312 L5,5.50195312 L4.03027344,6.65917969 L3.38476562,6.66210938 C3.34179688,6.66210938 3.30664062,6.62695312 3.30664062,6.58398438 C3.30664062,6.56542969 3.31347656,6.54785156 3.32519531,6.53320312 L3.32519531,6.53320312 L4.59570312,5.02050781 L3.32519531,3.50683594 C3.31347656,3.4921875 3.30664062,3.47460938 3.30664062,3.45605469 C3.30664062,3.41210938 3.34179688,3.37792969 3.38476562,3.37792969 L3.38476562,3.37792969 L4.03027344,3.38085938 L5,4.53710938 L5.97070312,3.37988281 Z" id="Check-Circle"></path>
                    </g>
                </g>
            </g>
        </g>
    </g>
</svg>